HIERARCHY
ROOT Hips
{
  OFFSET 0 0 0
  CHANNELS 6 Xposition Yposition Zposition Zrotation Yrotation Xrotation
  JOINT LeftThigh
  {
    OFFSET 8.409438 0 -5.917753
    CHANNELS 3 Zrotation Yrotation Xrotation
    JOINT LeftLeg
    {
      OFFSET 0 0 -42.358652
      CHANNELS 3 Zrotation Yrotation Xrotation
      JOINT LeftFoot
      {
        OFFSET 0 0 -39.357303
        CHANNELS 3 Zrotation Yrotation Xrotation
      }
    }
  }
  JOINT RightThigh
  {
    OFFSET -8.409438 0 -5.917753
    CHANNELS 3 Zrotation Yrotation Xrotation
    JOINT RightLeg
    {
      OFFSET 0 0 -42.358652
      CHANNELS 3 Zrotation Yrotation Xrotation
      JOINT RightFoot
      {
        OFFSET 0 0 -39.357303
        CHANNELS 3 Zrotation Yrotation Xrotation
      }
    }
  }
  JOINT SpineLow
  {
    OFFSET 0 0 4.719101
    CHANNELS 3 Zrotation Yrotation Xrotation
    JOINT SpineMid
    {
      OFFSET 0 0 12.899191
      CHANNELS 3 Zrotation Yrotation Xrotation
      JOINT Chest
      {
        OFFSET 0 0 12.899191
        CHANNELS 3 Zrotation Yrotation Xrotation
        JOINT LeftShoulder
        {
          OFFSET 7.550562 1.41573 9.438202
          CHANNELS 3 Zrotation Yrotation Xrotation
          JOINT LeftArm
          {
            OFFSET 9.155056 0 4.247191
            CHANNELS 3 Zrotation Yrotation Xrotation
            JOINT LeftForearm
            {
              OFFSET 0 0 25.771955
              CHANNELS 3 Zrotation Yrotation Xrotation
              JOINT LeftHand
              {
                OFFSET 0 0 25.197169
                CHANNELS 3 Zrotation Yrotation Xrotation
              }
            }
          }
        }
        JOINT RightShoulder
        {
          OFFSET -7.550562 1.41573 9.438202
          CHANNELS 3 Zrotation Yrotation Xrotation
          JOINT RightArm
          {
            OFFSET -9.155056 0 4.247191
            CHANNELS 3 Zrotation Yrotation Xrotation
            JOINT RightForearm
            {
              OFFSET 0 0 -25.771955
              CHANNELS 3 Zrotation Yrotation Xrotation
              JOINT RightHand
              {
                OFFSET 0 0 -25.197169
                CHANNELS 3 Zrotation Yrotation Xrotation
              }
            }
          }
        }
        JOINT Neck
        {
          OFFSET 0 0 15.101124
          CHANNELS 3 Zrotation Yrotation Xrotation
          JOINT Head
          {
            OFFSET 0 0 11.325843
            CHANNELS 3 Zrotation Yrotation Xrotation
            End Site
            {
              OFFSET 0 0 14.157303
            }
          }
        }
      }
    }
  }
}
MOTION
Frames: 8
Frame Time: 0.0
0.0  93.25843  0.0  0.619391  34.932745  -88.378619  8.124458  -12.752778  14.839221  -7.087853  0.986959  15.907677  7.048065  3.159868  2.456574  -26.878823  -11.324172  -38.081164  9.006798  18.273271  47.453107  7.836446  4.225714  2.671678  -0.196786  -0.102189  0.646807  -0.540586  -0.274035  1.768809  -0.540586  -0.274035  1.768809  -23.435717  25.804954  7.950419  139.283743  43.464854  -160.229547  -19.171707  7.488594  73.619895  67.074544  -31.149523  -9.523091  3.834557  -14.610034  18.038657  50.887215  70.166698  -5.657022  -35.772366  -27.830813  -89.356768  56.027205  6.357787  -14.483179  -15.905634  -1.48598  1.452907  -11.925108  -1.153244  1.051768  
0.0  93.25843  0.0  0.34634  33.762953  -88.894385  8.592604  -12.855007  15.348839  -7.020306  0.843943  15.682331  7.108598  3.177315  2.596153  -25.583538  -11.292094  -37.685522  8.769015  18.154572  47.238933  7.802694  4.182997  2.681682  -0.235875  -0.03731  0.660522  -0.645703  -0.095532  1.805815  -0.645704  -0.095532  1.805815  -22.883823  25.576892  8.446416  140.499116  43.914781  -159.580972  -19.864334  7.873576  72.710635  67.923954  -30.816545  -10.925515  4.134012  -14.866871  17.865269  54.642981  69.525242  -2.915948  -35.626991  -27.648677  -89.13683  55.927598  6.299006  -14.108697  -15.137097  -1.617927  1.677694  -11.347732  -1.255934  1.218978  
0.0  93.25843  0.0  0.076164  32.842708  -89.066493  8.58741  -12.719072  15.562183  -6.71932  0.610142  15.464937  7.166784  3.153888  2.703583  -24.500897  -11.430812  -37.542895  8.454229  18.052198  46.961464  7.71857  4.146458  2.678909  -0.191844  -0.019191  0.660548  -0.524867  -0.047211  1.80568  -0.524867  -0.047211  1.80568  -23.251409  25.454334  8.563511  141.484005  44.402402  -159.054644  -20.79699  8.314491  71.737131  68.499922  -30.725177  -11.800651  3.60837  -14.86356  17.338139  58.395506  68.610834  -0.258712  -35.395003  -27.431602  -88.983494  55.736227  6.304227  -13.64998  -14.716541  -1.655991  1.787029  -11.03191  -1.285933  1.301174  
0.0  93.25843  0.0  -0.328641  31.874495  -89.049903  8.5492  -12.479519  15.600982  -6.313947  0.255752  15.183185  7.129226  3.1402  2.805647  -23.579952  -11.807564  -37.59538  8.208109  17.961434  46.66767  8.219401  4.068925  2.80283  -0.172617  -0.012563  0.620058  -0.472117  -0.029911  1.694946  -0.472117  -0.029911  1.694946  -23.510035  25.293092  8.607955  142.365739  44.973551  -158.631489  -21.73052  8.565192  70.857595  68.814985  -30.724132  -12.292047  3.180797  -14.930412  16.712835  62.363931  67.384444  2.506657  -35.068272  -27.3474  -88.979563  55.433634  6.322088  -13.372723  -14.302697  -1.683654  1.891023  -10.721166  -1.30787  1.379637  
0.0  93.25843  0.0  -0.689554  31.030696  -88.998274  8.531295  -12.341974  15.7402  -6.036659  -0.089917  14.673577  7.207605  3.093155  2.937994  -22.694404  -12.245094  -37.5544  7.917631  17.938166  46.343498  8.123648  4.053336  2.80652  -0.155975  -0.012912  0.582842  -0.426625  -0.031532  1.593217  -0.426625  -0.031532  1.593217  -23.933739  25.161539  8.489769  143.155641  45.624439  -158.273292  -22.478475  8.540627  70.149273  68.950643  -30.630124  -12.69079  2.641331  -14.969954  16.086707  66.246139  66.016865  5.158186  -34.635425  -27.512856  -89.174693  55.18933  6.396065  -13.231019  -13.789346  -1.73506  2.031651  -10.33559  -1.347975  1.485349  
0.0  93.25843  0.0  -1.15521  29.841977  -89.137783  8.827927  -12.322483  16.208351  -5.697054  -0.44816  13.978699  6.865711  3.002124  2.89845  -21.802393  -12.724049  -37.422608  7.702038  17.934913  46.066395  8.384606  4.024473  2.917149  -0.174169  -0.015096  0.536332  -0.47638  -0.0374  1.466109  -0.47638  -0.0374  1.466109  -25.090954  24.93718  8.018248  145.391502  46.16909  -157.596703  -23.051068  8.383474  69.594453  69.083139  -30.485423  -13.104145  2.394341  -15.102588  15.56428  70.361621  64.361851  7.886188  -32.253772  -29.194017  -90.11497  56.553018  7.683727  -12.038645  -13.007555  -1.764989  2.262349  -9.748523  -1.37266  1.659934  
0.0  93.25843  0.0  -1.427275  29.067457  -89.104235  8.564145  -12.195851  16.71122  -5.066198  -0.756872  13.181714  6.918867  2.92593  3.043572  -21.120973  -13.15732  -37.290848  7.483375  17.947494  45.803408  8.289168  4.010403  2.959485  -0.184479  -0.012788  0.481162  -0.504486  -0.031282  1.315299  -0.504486  -0.031282  1.315299  -25.401548  24.869278  8.001727  146.314672  47.07475  -157.078119  -23.505415  8.256956  69.168083  69.372493  -30.338981  -13.541124  1.785086  -15.169885  15.132579  73.911762  62.661662  10.243613  -31.464271  -29.49276  -90.911975  56.489889  7.760819  -12.010654  -12.514623  -1.79749  2.408599  -9.378289  -1.398166  1.770356  
0.0  93.25843  0.0  -1.715966  28.013469  -89.196753  7.991223  -11.921499  16.994485  -3.998743  -1.034274  12.745557  6.972736  2.858669  3.180145  -20.419255  -13.547528  -37.061576  7.346641  17.889599  45.543756  8.15991  4.032003  3.020634  -0.192203  -0.012394  0.416354  -0.525563  -0.030569  1.138152  -0.525563  -0.030569  1.138151  -26.803418  24.765257  7.7042  148.875983  47.960326  -156.114261  -23.820082  8.062087  69.022082  69.629072  -30.10114  -13.993916  0.93227  -15.171983  14.823593  77.740569  60.625795  12.56921  -30.481578  -29.640383  -92.03455  56.460837  7.771282  -11.991688  -11.914061  -1.765049  2.59436  -8.92754  -1.375017  1.912053  
